# xmcd
#
# Track frame offsets:
#	150
#	14029
#	27472
#	39299
#	53043
#	67040
#	80708
#	95469
#	109784
#	121071
#	134416
#	147324
#	160388
#	172581
#	187058
#	200296
#	214597
#	229021
#
# Disc length: 3235 seconds
#
# Revision: 0
# Processed by: cddbd v1.5.1PL0 Copyright (c) Steve Scherf et al.
# Submitted via: dBpowerAMP V4.0
#
DISCID=fa0ca112
DTITLE=Various Artist - Original Blues Classicc
DYEAR=2001
DGENRE=Blues
TTITLE0=Good Morning, Schoolgirl (Sonny Boy Williamson)
TTITLE1=Rock Me Mama (Arthur 'Big Boy' Crudup)
TTITLE2=Harmonica and Washboard Breakdown (Sonny Terry)
TTITLE3=Key To The Highway (Big Bill Broonzy)
TTITLE4=Midnight Special (Leadbelly)
TTITLE5=Sweet Home Chicago (Robert Johnson)
TTITLE6=I Got A Break, Baby (T-Bone Walker)
TTITLE7=Nobody's Fault But Mine (Blind Willie Johnson)
TTITLE8=Statesboro Blues (Blind Willie McTell)
TTITLE9=Piniey Brown Blues (Big Joe Turner)
TTITLE10=Catfish Blues (Robert Petway)
TTITLE11=Worried Life Blues (Big Maceo)
TTITLE12=Key To The Highway (Jazz Gillum)
TTITLE13=Lone Wolf Blues (Oscar Woods)
TTITLE14=Don't Lie to Me (Tampa Red)
TTITLE15=You Just As Well Let Her Go (Casey Bill Weldon)
TTITLE16=Winnie The Wailer (Lonnie Johnson)
TTITLE17=New Confessin' The Blues (Walter Brown)
EXTD=
EXTT0=
EXTT1=
EXTT2=
EXTT3=
EXTT4=
EXTT5=
EXTT6=
EXTT7=
EXTT8=
EXTT9=
EXTT10=
EXTT11=
EXTT12=
EXTT13=
EXTT14=
EXTT15=
EXTT16=
EXTT17=
PLAYORDER=
